<svg width="525" height="1024" fill="none" xmlns="http://www.w3.org/2000/svg"><path d="M262.116 169.378a.992.992 0 01-1 .995c-17.051-.165-33.919-4.565-49.679-12.964-16.067-8.563-30.666-21.113-42.963-36.935-12.298-15.821-22.052-34.603-28.708-55.273-6.556-20.363-9.978-42.167-10.078-64.2a.996.996 0 01.998-1h130.43a1 1 0 011 1v168.377z" fill="#222536"/><path d="M.5 1.002C.5.724.724.504.995.506c16.967.165 33.758 4.543 49.45 12.906 15.998 8.527 30.545 21.029 42.803 36.8 12.259 15.772 21.988 34.501 28.627 55.12 6.539 20.312 9.954 42.065 10.054 64.049a.497.497 0 01-.498.498H1.001a.5.5 0 01-.5-.5V1.002z" stroke="#222536"/><path d="M525 340.176c0 .552-.448 1-1 .995-17.051-.166-33.92-4.565-49.679-12.965-16.067-8.563-30.666-21.113-42.963-36.934-12.298-15.821-22.053-34.604-28.708-55.274-6.556-20.362-9.978-42.166-10.078-64.2a.996.996 0 01.997-1H524a1 1 0 011 1v168.378z" fill="#222536"/><path d="M261.938 171.147c0-.277.224-.498.495-.495 17.046.165 33.914 4.565 49.679 12.971 16.072 8.57 30.685 21.134 42.999 36.985 12.315 15.851 22.088 34.675 28.757 55.398 6.57 20.416 10 42.28 10.1 64.377a.497.497 0 01-.498.498H262.438a.5.5 0 01-.5-.5V171.147zM131.376 340.381a.493.493 0 01-.495.495c-16.893-.168-33.61-4.597-49.234-13.057-15.931-8.628-30.417-21.277-42.624-37.235-12.208-15.959-21.897-34.91-28.508-55.774C4.001 214.253.601 192.237.502 169.988A.497.497 0 011 169.49h129.876a.5.5 0 01.5.5v170.391zM394.05 169.378a.493.493 0 01-.496.495c-16.966-.165-33.757-4.543-49.448-12.906-16-8.527-30.546-21.028-42.804-36.8-12.259-15.771-21.988-34.5-28.627-55.12-6.54-20.312-9.954-42.065-10.054-64.049a.497.497 0 01.498-.498H393.55a.5.5 0 01.5.5v168.378z" stroke="#222536"/><path d="M524.5 169.378a.492.492 0 01-.495.495c-16.967-.165-33.758-4.543-49.449-12.906-16-8.527-30.546-21.028-42.804-36.8-12.259-15.771-21.988-34.5-28.627-55.12-6.539-20.312-9.954-42.065-10.054-64.049a.497.497 0 01.498-.498H524a.5.5 0 01.5.5v168.378z" stroke="#222536"/><path d="M262.595 340.381c0 .552-.448 1-1 .995-16.826-.169-33.473-4.591-49.024-13.03-15.86-8.606-30.27-21.219-42.408-37.12-12.139-15.9-21.767-34.777-28.337-55.551-6.471-20.466-9.849-42.381-9.948-64.528a.997.997 0 01.998-1h128.719a1 1 0 011 1v169.234zm.286 172.931c0-.552.447-1 1-.995 17.051.166 33.92 4.565 49.679 12.964 16.067 8.564 30.666 21.114 42.963 36.935 12.298 15.821 22.053 34.604 28.708 55.274 6.556 20.362 9.978 42.166 10.078 64.2a.996.996 0 01-.998 1h-130.43a1 1 0 01-1-1V513.312z" fill="#528BE6"/><path d="M524.497 681.689a.492.492 0 01-.495.495c-16.967-.165-33.757-4.543-49.449-12.906-15.999-8.527-30.546-21.028-42.804-36.8-12.259-15.771-21.988-34.501-28.626-55.12-6.54-20.312-9.954-42.065-10.055-64.049a.497.497 0 01.498-.498h130.431a.5.5 0 01.5.5v168.378z" stroke="#222536"/><path d="M-.003 342.515a.992.992 0 011-.995c17.05.165 33.92 4.565 49.679 12.964 16.067 8.563 30.666 21.113 42.963 36.934 12.298 15.822 22.053 34.604 28.708 55.274 6.556 20.362 9.978 42.166 10.078 64.2a.995.995 0 01-.997 1H.997a1 1 0 01-1-1V342.515z" fill="#222536"/><path d="M263.059 511.543a.492.492 0 01-.495.495c-17.046-.165-33.914-4.564-49.679-12.97-16.072-8.57-30.685-21.135-42.999-36.986-12.315-15.851-22.088-34.675-28.757-55.398-6.57-20.416-10-42.28-10.1-64.376a.497.497 0 01.498-.498h131.032a.5.5 0 01.5.5v169.233zM393.621 342.31c0-.278.225-.498.496-.495 16.892.167 33.609 4.596 49.233 13.057 15.932 8.627 30.417 21.276 42.624 37.235 12.208 15.958 21.897 34.91 28.508 55.774 6.514 20.556 9.914 42.572 10.013 64.821a.497.497 0 01-.498.498H394.121a.5.5 0 01-.5-.5V342.31zM130.948 513.313c0-.278.224-.498.495-.496 16.967.165 33.757 4.543 49.449 12.906 15.999 8.527 30.545 21.029 42.803 36.8 12.259 15.772 21.988 34.501 28.627 55.12 6.54 20.312 9.954 42.065 10.054 64.049a.497.497 0 01-.498.498h-130.43a.5.5 0 01-.501-.5l.001-168.377z" stroke="#222536"/><path d="M.497 513.313c0-.278.224-.498.496-.496 16.966.165 33.757 4.543 49.448 12.906 16 8.527 30.546 21.029 42.804 36.8 12.259 15.772 21.988 34.501 28.627 55.12 6.539 20.312 9.954 42.065 10.054 64.049a.497.497 0 01-.498.498H.998a.5.5 0 01-.5-.5V513.313z" stroke="#222536"/><path d="M262.402 342.31a.992.992 0 011-.995c16.826.168 33.473 4.59 49.024 13.029 15.86 8.606 30.27 21.219 42.408 37.12 12.139 15.901 21.767 34.778 28.337 55.552 6.472 20.466 9.849 42.381 9.948 64.527a.997.997 0 01-.998 1H263.402a1 1 0 01-1-1V342.31zm-.285 509.687a.993.993 0 01-1 .996c-17.051-.166-33.92-4.566-49.679-12.965-16.068-8.563-30.666-21.113-42.964-36.934-12.297-15.821-22.052-34.604-28.707-55.274-6.556-20.362-9.978-42.166-10.079-64.2a.997.997 0 01.998-1h130.431a1 1 0 011 1v168.377z" fill="#222536"/><path d="M.5 683.621c0-.277.225-.498.496-.495 16.967.165 33.757 4.542 49.449 12.905 15.999 8.527 30.545 21.029 42.804 36.801 12.258 15.771 21.987 34.501 28.626 55.12 6.54 20.312 9.954 42.065 10.054 64.049a.496.496 0 01-.497.498H1.001a.5.5 0 01-.5-.5V683.621z" stroke="#222536"/><path d="M525 1022.79a.989.989 0 01-1 1c-17.051-.17-33.92-4.57-49.679-12.96-16.067-8.57-30.666-21.117-42.963-36.939-12.298-15.821-22.053-34.603-28.708-55.274-6.556-20.362-9.978-42.166-10.078-64.2a.996.996 0 01.997-1H524a1 1 0 011 1v168.373z" fill="#222536"/><path d="M261.938 853.767c0-.278.224-.498.495-.496 17.046.165 33.914 4.565 49.679 12.971 16.072 8.57 30.685 21.135 42.999 36.986 12.315 15.851 22.088 34.674 28.757 55.398 6.57 20.415 10 42.284 10.1 64.374.001.28-.221.5-.498.5H262.438c-.276 0-.5-.22-.5-.5V853.767zM131.376 1023c0 .28-.224.5-.495.5-16.893-.17-33.61-4.6-49.234-13.06-15.931-8.63-30.417-21.279-42.624-37.237-12.208-15.958-21.897-34.91-28.508-55.774C4.001 896.872.601 874.857.502 852.608A.497.497 0 011 852.11h129.876a.5.5 0 01.5.5V1023zM394.05 851.997a.493.493 0 01-.496.495c-16.966-.164-33.757-4.542-49.448-12.905-16-8.527-30.546-21.029-42.804-36.8-12.259-15.772-21.988-34.501-28.627-55.121-6.54-20.311-9.954-42.064-10.054-64.049a.497.497 0 01.498-.497H393.55a.5.5 0 01.5.5v168.377z" stroke="#222536"/><path d="M524.5 851.997a.492.492 0 01-.495.495c-16.967-.164-33.758-4.542-49.449-12.905-16-8.527-30.546-21.029-42.804-36.8-12.259-15.772-21.988-34.501-28.627-55.121-6.539-20.311-9.954-42.064-10.054-64.049a.497.497 0 01.498-.497H524a.5.5 0 01.5.5v168.377z" stroke="#222536"/><path d="M262.595 1023c0 .55-.448 1-1 .99-16.826-.16-33.473-4.59-49.024-13.02-15.86-8.61-30.27-21.224-42.408-37.124-12.139-15.901-21.767-34.778-28.337-55.552-6.471-20.466-9.849-42.381-9.948-64.527a.997.997 0 01.998-1h128.719a1 1 0 011 1V1023z" fill="#528BE6"/></svg>