<svg width="111" height="25" fill="none" xmlns="http://www.w3.org/2000/svg"><path d="M58.443 10.633h-1.866L61.03 0h1.624l4.452 10.633h-1.97l-1.098-2.711h-4.497l-1.098 2.711zM63.33 6.18l-1.534-3.772-1.55 3.772h3.084zM77.678.03v10.603h-1.474l-5.79-7.346v7.346h-1.73V.03h1.474l5.79 7.377V.03h1.73zm-8.24 14.2h1.775l-3.008 10.603h-1.73l-2.542-7.664-2.497 7.664H59.69l-3.144-10.602h2.076l2.12 7.558 2.347-7.559h1.835l2.407 7.574 2.106-7.573zm2.268 5.302c0-1.545.511-2.843 1.534-3.893 1.043-1.05 2.356-1.575 3.94-1.575 1.585 0 2.894.505 3.927 1.515 1.043 1.02 1.564 2.337 1.564 3.953 0 1.585-.522 2.893-1.564 3.923C80.064 24.485 78.755 25 77.18 25c-1.585 0-2.893-.505-3.926-1.515-1.033-1.01-1.55-2.327-1.55-3.953zm1.955 0c0 1.07.336 1.959 1.008 2.666.672.707 1.509 1.06 2.512 1.06 1.083 0 1.94-.353 2.572-1.06.642-.707.963-1.596.963-2.666 0-1.08-.341-1.974-1.023-2.681-.682-.697-1.52-1.045-2.512-1.045-1.013 0-1.855.348-2.527 1.045-.662.697-.993 1.59-.993 2.681zm13.001 1.333v3.968h-1.85V14.231c.521 0 1.088-.005 1.7-.016.611-.01 1.113-.015 1.504-.015 2.547 0 3.82 1.09 3.82 3.272 0 .808-.205 1.474-.617 2-.41.504-.882.848-1.413 1.03l3.294 4.331h-2.241l-2.903-3.968h-1.294zm1.263-4.923c-.05 0-.13.005-.24.015-.11 0-.266.005-.466.015h-.557v3.151h1.203c.592 0 1.073-.146 1.444-.44.381-.292.572-.691.572-1.196 0-1.03-.652-1.545-1.956-1.545zm8.637 8.891h-1.85V14.231h1.85v5.028l4.152-5.029h2.226l-4.332 4.938 4.603 5.665h-2.347l-4.302-5.468v5.468zm12.483-2.817a1.17 1.17 0 00-.361-.848 2.514 2.514 0 00-.873-.606 80.91 80.91 0 01-1.158-.545c-.411-.212-.792-.43-1.143-.652a2.89 2.89 0 01-.887-.954c-.231-.414-.346-.889-.346-1.424 0-.818.295-1.51.887-2.075.612-.565 1.409-.848 2.392-.848 1.333 0 2.336.379 3.008 1.136l-.993 1.393c-.531-.525-1.153-.787-1.865-.787-.451 0-.812.106-1.083.318a1.037 1.037 0 00-.391.848c0 .182.035.354.105.515.071.152.146.278.226.379.09.1.231.212.421.333.201.121.356.212.466.273a96.328 96.328 0 011.159.515c.441.202.827.414 1.158.636.371.222.667.54.887.954.231.414.346.889.346 1.424 0 .889-.336 1.61-1.008 2.166-.671.555-1.509.833-2.512.833a5.323 5.323 0 01-2.09-.44c-.662-.302-1.113-.711-1.354-1.226l1.053-1.273c.281.374.642.667 1.083.879.451.212.897.318 1.339.318.461 0 .832-.111 1.113-.333.28-.222.421-.525.421-.909z" fill="#161617"/><path d="M0 1C0 .448.448-.003 1 .032c2.28.143 4.525.775 6.638 1.871 2.422 1.257 4.622 3.098 6.476 5.42 1.853 2.321 3.323 5.077 4.327 8.11A30.448 30.448 0 0119.944 24a.976.976 0 01-.984 1H1a1 1 0 01-1-1V1z" fill="#222536"/><path d="M39.68 24c0 .552-.449 1.003-1 .968-2.28-.143-4.525-.775-6.639-1.871-2.421-1.257-4.622-3.098-6.475-5.42-1.854-2.321-3.324-5.077-4.327-8.11A30.449 30.449 0 0119.736 1a.976.976 0 01.984-1h17.96a1 1 0 011 1v23z" fill="#A1CBF2"/><path d="M52.358 24c0 .552-.448 1.003-1 .968-2.279-.143-4.525-.775-6.638-1.871-2.422-1.257-4.622-3.098-6.475-5.42-1.854-2.321-3.324-5.077-4.327-8.11A30.449 30.449 0 0132.414 1a.976.976 0 01.984-1h17.96a1 1 0 011 1v23z" fill="#528BE6"/></svg>