<svg width="320" height="52" fill="none" xmlns="http://www.w3.org/2000/svg"><g clip-path="url(#clip0_1742:763)"><path d="M28 25.75a.713.713 0 00.726-.737c-.148-3.036-.979-6.031-2.46-8.846-1.64-3.121-4.047-5.96-7.086-8.355l.154-.197-.154.197c-3.04-2.395-6.651-4.297-10.63-5.595C4.88 1.019.963.357-3.006.262A.732.732 0 00-3.75 1v24c0 .414.336.75.75.75h31zm32.401 25.502a.713.713 0 00.726-.738c-.148-3.035-.979-6.03-2.459-8.846-1.64-3.12-4.047-5.96-7.087-8.354l.155-.197-.155.197c-3.04-2.395-6.65-4.297-10.629-5.595-3.671-1.199-7.587-1.86-11.556-1.955a.732.732 0 00-.744.738v24c0 .414.335.75.75.75h31z" fill="#fff" stroke="#222536" stroke-width=".5"/><path d="M-3 25.752a.713.713 0 00-.726.737c.148 3.036.979 6.031 2.46 8.846 1.64 3.121 4.047 5.96 7.086 8.355l-.154.197.154-.197c3.04 2.395 6.651 4.297 10.629 5.595 3.671 1.198 7.588 1.86 11.557 1.955a.732.732 0 00.744-.738v-24a.75.75 0 00-.75-.75H-3z" fill="#222536" stroke="#222536" stroke-width=".5"/><path d="M102 51.252a.713.713 0 00.726-.738c-.148-3.035-.979-6.03-2.459-8.846-1.641-3.12-4.048-5.96-7.087-8.354l.154-.197-.154.197c-3.04-2.395-6.651-4.297-10.629-5.595-3.672-1.199-7.588-1.86-11.557-1.955a.732.732 0 00-.744.738v24c0 .414.336.75.75.75h31z" fill="#528BE6" stroke="#222536" stroke-width=".5"/><path d="M135 51.252a.713.713 0 00.726-.738c-.148-3.035-.979-6.03-2.459-8.846-1.641-3.12-4.048-5.96-7.087-8.354l.154-.197-.154.197c-3.04-2.395-6.651-4.297-10.629-5.595-3.671-1.199-7.588-1.86-11.557-1.955a.732.732 0 00-.744.738v24c0 .414.336.75.75.75h31zM39 .25a.713.713 0 00-.726.737c.148 3.036.979 6.031 2.46 8.846 1.64 3.121 4.047 5.96 7.086 8.355l-.154.197.154-.197c3.04 2.395 6.651 4.297 10.629 5.595 3.672 1.198 7.588 1.86 11.557 1.955A.732.732 0 0070.75 25V1A.75.75 0 0070 .25H39z" fill="#fff" stroke="#222536" stroke-width=".5"/><path d="M102 25.75a.713.713 0 00.726-.737c-.148-3.036-.979-6.031-2.459-8.846-1.641-3.121-4.048-5.96-7.087-8.355l.154-.197-.154.197c-3.04-2.395-6.651-4.297-10.629-5.595C78.879 1.019 74.963.357 70.994.262A.732.732 0 0070.25 1v24c0 .414.336.75.75.75h31z" fill="#fff" stroke="#222536" stroke-width=".5"/><path d="M104 0a.964.964 0 00-.976 1c.15 3.073.991 6.104 2.488 8.95 1.659 3.154 4.089 6.02 7.154 8.435 3.064 2.414 6.702 4.33 10.705 5.636A40.71 40.71 0 00135 25.988a.982.982 0 001-.988V1a1 1 0 00-1-1h-31z" fill="#528BE6"/><path d="M168 25.75a.713.713 0 00.726-.737c-.148-3.036-.979-6.031-2.459-8.846-1.641-3.121-4.048-5.96-7.087-8.355l.154-.197-.154.197c-3.04-2.395-6.651-4.297-10.629-5.595-3.671-1.198-7.588-1.86-11.557-1.955a.732.732 0 00-.744.738v24c0 .414.336.75.75.75h31zm135 0a.713.713 0 00.726-.737c-.148-3.036-.979-6.031-2.459-8.846-1.641-3.121-4.048-5.96-7.087-8.355l.154-.197-.154.197c-3.04-2.395-6.651-4.297-10.629-5.595-3.671-1.198-7.588-1.86-11.557-1.955a.732.732 0 00-.744.738v24c0 .414.336.75.75.75h31z" fill="#fff" stroke="#000" stroke-width=".5"/><path d="M170 25.75a.713.713 0 01-.726-.737c.148-3.036.979-6.031 2.459-8.846 1.641-3.121 4.048-5.96 7.087-8.355l-.154-.197.154.197c3.04-2.395 6.651-4.297 10.629-5.595 3.671-1.198 7.588-1.86 11.557-1.955a.732.732 0 01.744.738v24a.75.75 0 01-.75.75h-31z" fill="#fff" stroke="#222536" stroke-width=".5"/><path d="M201 25.752c.418 0 .745.336.726.737-.148 3.035-.979 6.03-2.459 8.846-1.641 3.12-4.048 5.96-7.087 8.355l.154.196-.154-.196c-3.04 2.395-6.651 4.297-10.629 5.595-3.671 1.198-7.588 1.86-11.557 1.955a.732.732 0 01-.744-.738v-24a.75.75 0 01.75-.75h31z" fill="#528BE6" stroke="#222536" stroke-width=".5"/><path d="M203 26.25a.713.713 0 00-.726.737c.148 3.036.979 6.031 2.459 8.846 1.641 3.121 4.048 5.96 7.087 8.355l-.154.197.154-.197c3.04 2.395 6.651 4.297 10.629 5.595 3.671 1.198 7.588 1.86 11.557 1.955a.732.732 0 00.744-.738V27a.75.75 0 00-.75-.75h-31zm36-.738a.713.713 0 00-.726.737c.148 3.036.979 6.031 2.459 8.847 1.641 3.12 4.048 5.96 7.087 8.354l-.154.197.154-.197c3.04 2.395 6.651 4.297 10.629 5.595 3.671 1.198 7.588 1.86 11.557 1.955a.732.732 0 00.744-.738v-24a.75.75 0 00-.75-.75h-31z" fill="#fff" stroke="#222536" stroke-width=".5"/><path d="M233.521.25c.418 0 .746.337.726.737-.148 3.036-.978 6.031-2.459 8.846-1.64 3.121-4.047 5.96-7.087 8.355l.155.197-.155-.197c-3.039 2.395-6.651 4.297-10.628 5.595-3.672 1.198-7.588 1.86-11.557 1.955a.732.732 0 01-.744-.738V1a.75.75 0 01.75-.75h30.999z" fill="#222536" stroke="#222536" stroke-width=".5"/><path d="M270 25.75a.713.713 0 00.726-.737c-.148-3.036-.979-6.031-2.459-8.846-1.641-3.121-4.048-5.96-7.087-8.355l.154-.197-.154.197c-3.04-2.395-6.651-4.297-10.629-5.595-3.671-1.198-7.588-1.86-11.557-1.955a.732.732 0 00-.744.738v24c0 .414.336.75.75.75h31z" fill="#fff" stroke="#222536" stroke-width=".5"/><path d="M168 51.252a.713.713 0 00.726-.738c-.148-3.035-.979-6.03-2.459-8.846-1.641-3.12-4.048-5.96-7.087-8.354l.154-.197-.154.197c-3.04-2.395-6.651-4.297-10.629-5.595-3.671-1.199-7.588-1.86-11.557-1.955a.732.732 0 00-.744.738v24c0 .414.336.75.75.75h31zm134.488-.24a.713.713 0 00.726-.737c-.148-3.036-.979-6.031-2.459-8.846-1.641-3.121-4.048-5.96-7.087-8.355l.155-.197-.155.197c-3.04-2.395-6.651-4.297-10.629-5.595-3.671-1.198-7.588-1.86-11.556-1.955a.732.732 0 00-.744.738v24c0 .414.335.75.75.75h30.999z" fill="#fff" stroke="#000" stroke-width=".5"/><path d="M336 25.75a.713.713 0 00.726-.737c-.148-3.036-.979-6.031-2.459-8.846-1.641-3.121-4.048-5.96-7.087-8.355l.154-.197-.154.197c-3.04-2.395-6.651-4.297-10.629-5.595-3.671-1.198-7.588-1.86-11.557-1.955a.732.732 0 00-.744.738v24c0 .414.336.75.75.75h31z" fill="#fff" stroke="#222536" stroke-width=".5"/><path d="M305 26.25a.713.713 0 00-.726.737c.148 3.036.979 6.031 2.459 8.846 1.641 3.121 4.048 5.96 7.087 8.355l-.154.197.154-.197c3.04 2.395 6.651 4.297 10.629 5.595 3.671 1.198 7.588 1.86 11.557 1.955a.732.732 0 00.744-.738V27a.75.75 0 00-.75-.75h-31z" fill="#222536" stroke="#222536" stroke-width=".5"/></g><defs><clipPath id="clip0_1742:763"><path fill="#fff" d="M0 0h320v52H0z"/></clipPath></defs></svg>