<svg width="525" height="1024" viewBox="0 0 525 1024" fill="none" xmlns="http://www.w3.org/2000/svg">
<path d="M262.116 169.378C262.116 169.93 261.669 170.379 261.116 170.373C244.065 170.208 227.197 165.808 211.437 157.409C195.37 148.846 180.771 136.296 168.474 120.474C156.176 104.653 146.422 85.8707 139.766 65.2005C133.21 44.8383 129.788 23.0344 129.688 1.00049C129.685 0.448196 130.133 0.000320494 130.686 0.000320566L261.116 0.000337744C261.669 0.000337817 262.116 0.448046 262.116 1.00034L262.116 169.378Z" fill="#222536"/>
<path d="M0.500244 1.00161C0.500244 0.724258 0.72435 0.503804 0.995499 0.506438C17.9623 0.67124 34.7526 5.04899 50.4443 13.412C66.4435 21.9389 80.9897 34.4407 93.2482 50.2121C105.507 65.9836 115.236 84.7131 121.875 105.332C128.414 125.644 131.829 147.397 131.929 169.381C131.93 169.655 131.708 169.879 131.431 169.879L1.00024 169.879C0.724089 169.879 0.500227 169.655 0.500227 169.379L0.500244 1.00161Z" stroke="#222536"/>
<path d="M525 340.176C525 340.728 524.552 341.176 524 341.171C506.949 341.005 490.08 336.606 474.321 328.206C458.254 319.643 443.655 307.093 431.358 291.272C419.06 275.451 409.305 256.668 402.65 235.998C396.094 215.636 392.672 193.832 392.572 171.798C392.569 171.246 393.017 170.798 393.569 170.798L524 170.798C524.553 170.798 525 171.246 525 171.798L525 340.176Z" fill="#222536"/>
<path d="M261.938 171.147C261.938 170.87 262.162 170.649 262.433 170.652C279.479 170.817 296.347 175.217 312.112 183.623C328.184 192.193 342.797 204.757 355.111 220.608C367.426 236.459 377.199 255.283 383.868 276.006C390.438 296.422 393.868 318.286 393.968 340.383C393.969 340.657 393.747 340.881 393.47 340.881L262.438 340.881C262.162 340.881 261.938 340.657 261.938 340.381L261.938 171.147Z" stroke="#222536"/>
<path d="M131.376 340.381C131.376 340.658 131.152 340.878 130.881 340.876C113.988 340.708 97.271 336.279 81.647 327.819C65.7155 319.191 51.2302 306.542 39.0227 290.584C26.8149 274.625 17.1265 255.674 10.5151 234.81C4.00107 214.253 0.60096 192.237 0.502216 169.988C0.501001 169.714 0.72339 169.49 1 169.49L130.876 169.49C131.152 169.49 131.376 169.714 131.376 169.99L131.376 340.381Z" stroke="#222536"/>
<path d="M394.05 169.378C394.05 169.655 393.825 169.876 393.554 169.873C376.588 169.708 359.797 165.33 344.106 156.967C328.106 148.44 313.56 135.939 301.302 120.167C289.043 104.396 279.314 85.6663 272.675 65.047C266.135 44.7351 262.721 22.9822 262.621 0.997978C262.62 0.724098 262.842 0.500099 263.119 0.500099L393.55 0.500101C393.826 0.500101 394.05 0.723962 394.05 1.0001L394.05 169.378Z" stroke="#222536"/>
<path d="M524.5 169.378C524.5 169.655 524.276 169.876 524.005 169.873C507.038 169.708 490.247 165.33 474.556 156.967C458.556 148.44 444.01 135.939 431.752 120.167C419.493 104.396 409.764 85.6663 403.125 65.047C396.586 44.7351 393.171 22.9822 393.071 0.997971C393.07 0.724091 393.292 0.500092 393.569 0.500092L524 0.500093C524.276 0.500093 524.5 0.723955 524.5 1.00009L524.5 169.378Z" stroke="#222536"/>
<path d="M262.595 340.381C262.595 340.933 262.147 341.381 261.595 341.376C244.769 341.207 228.122 336.785 212.571 328.346C196.711 319.74 182.301 307.127 170.163 291.226C158.024 275.326 148.396 256.449 141.826 235.675C135.355 215.209 131.977 193.294 131.878 171.147C131.876 170.595 132.324 170.147 132.876 170.147L261.595 170.147C262.147 170.147 262.595 170.595 262.595 171.147L262.595 340.381Z" fill="#528BE6"/>
<path d="M262.881 513.312C262.881 512.76 263.328 512.312 263.881 512.317C280.932 512.483 297.801 516.882 313.56 525.281C329.627 533.845 344.226 546.395 356.523 562.216C368.821 578.037 378.576 596.82 385.231 617.49C391.787 637.852 395.209 659.656 395.309 681.69C395.312 682.242 394.864 682.69 394.311 682.69L263.881 682.69C263.328 682.69 262.881 682.242 262.881 681.69L262.881 513.312Z" fill="#528BE6"/>
<path d="M524.497 681.689C524.497 681.966 524.273 682.187 524.002 682.184C507.035 682.019 490.245 677.641 474.553 669.278C458.554 660.751 444.007 648.25 431.749 632.478C419.49 616.707 409.761 597.977 403.123 577.358C396.583 557.046 393.169 535.293 393.068 513.309C393.067 513.035 393.289 512.811 393.566 512.811L523.997 512.811C524.273 512.811 524.497 513.035 524.497 513.311L524.497 681.689Z" stroke="#222536"/>
<path d="M-0.00317405 342.515C-0.00317393 341.962 0.444672 341.514 0.996933 341.52C18.0478 341.685 34.9168 346.085 50.676 354.484C66.7433 363.047 81.3422 375.597 93.6395 391.418C105.937 407.24 115.692 426.022 122.347 446.692C128.903 467.054 132.325 488.858 132.425 510.892C132.428 511.445 131.98 511.892 131.428 511.892L0.996804 511.892C0.444512 511.892 -0.00321087 511.445 -0.00321075 510.892L-0.00317405 342.515Z" fill="#222536"/>
<path d="M263.059 511.543C263.059 511.821 262.835 512.041 262.564 512.038C245.518 511.873 228.65 507.474 212.885 499.068C196.813 490.498 182.2 477.933 169.886 462.082C157.571 446.231 147.798 427.407 141.129 406.684C134.559 386.268 131.129 364.404 131.029 342.308C131.028 342.034 131.25 341.81 131.527 341.81L262.559 341.81C262.835 341.81 263.059 342.034 263.059 342.31L263.059 511.543Z" stroke="#222536"/>
<path d="M393.621 342.31C393.621 342.032 393.846 341.812 394.117 341.815C411.009 341.982 427.726 346.411 443.35 354.872C459.282 363.499 473.767 376.148 485.974 392.107C498.182 408.065 507.871 427.017 514.482 447.881C520.996 468.437 524.396 490.453 524.495 512.702C524.496 512.976 524.274 513.2 523.997 513.2L394.121 513.2C393.845 513.2 393.621 512.976 393.621 512.7L393.621 342.31Z" stroke="#222536"/>
<path d="M130.948 513.313C130.948 513.035 131.172 512.815 131.443 512.817C148.41 512.982 165.2 517.36 180.892 525.723C196.891 534.25 211.437 546.752 223.695 562.523C235.954 578.295 245.683 597.024 252.322 617.643C258.862 637.955 262.276 659.708 262.376 681.692C262.377 681.966 262.155 682.19 261.878 682.19L131.448 682.19C131.171 682.19 130.947 681.966 130.947 681.69L130.948 513.313Z" stroke="#222536"/>
<path d="M0.497314 513.313C0.497314 513.035 0.72142 512.815 0.992569 512.817C17.9593 512.982 34.7496 517.36 50.4413 525.723C66.4406 534.25 80.9867 546.752 93.2452 562.523C105.504 578.295 115.233 597.024 121.872 617.643C128.411 637.955 131.826 659.708 131.926 681.692C131.927 681.966 131.705 682.19 131.428 682.19L0.997313 682.19C0.721159 682.19 0.497298 681.966 0.497298 681.69L0.497314 513.313Z" stroke="#222536"/>
<path d="M262.402 342.31C262.402 341.758 262.85 341.309 263.402 341.315C280.228 341.483 296.875 345.905 312.426 354.344C328.286 362.95 342.696 375.563 354.834 391.464C366.973 407.365 376.601 426.242 383.171 447.016C389.643 467.482 393.02 489.397 393.119 511.543C393.121 512.095 392.673 512.543 392.121 512.543L263.402 512.543C262.85 512.543 262.402 512.095 262.402 511.543L262.402 342.31Z" fill="#222536"/>
<path d="M262.117 851.997C262.117 852.55 261.669 852.998 261.117 852.993C244.066 852.827 227.197 848.427 211.438 840.028C195.37 831.465 180.772 818.915 168.474 803.094C156.177 787.273 146.422 768.49 139.767 747.82C133.211 727.458 129.789 705.654 129.688 683.62C129.686 683.068 130.134 682.62 130.686 682.62L261.117 682.62C261.669 682.62 262.117 683.067 262.117 683.62L262.117 851.997Z" fill="#222536"/>
<path d="M0.500732 683.621C0.500732 683.344 0.724838 683.123 0.995987 683.126C17.9627 683.291 34.753 687.668 50.4448 696.031C66.444 704.558 80.9902 717.06 93.2486 732.832C105.507 748.603 115.236 767.333 121.875 787.952C128.415 808.264 131.829 830.017 131.929 852.001C131.931 852.275 131.708 852.499 131.432 852.499L1.00073 852.499C0.724577 852.499 0.500716 852.275 0.500716 851.999L0.500732 683.621Z" stroke="#222536"/>
<path d="M525 1022.79C525 1023.35 524.552 1023.8 524 1023.79C506.949 1023.62 490.08 1019.22 474.321 1010.83C458.254 1002.26 443.655 989.713 431.358 973.891C419.06 958.07 409.305 939.288 402.65 918.617C396.094 898.255 392.672 876.451 392.572 854.417C392.569 853.865 393.017 853.417 393.569 853.417L524 853.417C524.553 853.417 525 853.865 525 854.417L525 1022.79Z" fill="#222536"/>
<path d="M261.938 853.767C261.938 853.489 262.162 853.269 262.433 853.271C279.479 853.436 296.347 857.836 312.112 866.242C328.184 874.812 342.797 887.377 355.111 903.228C367.426 919.079 377.199 937.902 383.868 958.626C390.438 979.041 393.868 1000.91 393.968 1023C393.969 1023.28 393.747 1023.5 393.47 1023.5L262.438 1023.5C262.162 1023.5 261.938 1023.28 261.938 1023L261.938 853.767Z" stroke="#222536"/>
<path d="M131.376 1023C131.376 1023.28 131.152 1023.5 130.881 1023.5C113.988 1023.33 97.271 1018.9 81.647 1010.44C65.7155 1001.81 51.2302 989.161 39.0227 973.203C26.8149 957.245 17.1265 938.293 10.5151 917.429C4.00107 896.872 0.60096 874.857 0.502216 852.608C0.501001 852.334 0.72339 852.11 1 852.11L130.876 852.11C131.152 852.11 131.376 852.334 131.376 852.61L131.376 1023Z" stroke="#222536"/>
<path d="M394.05 851.997C394.05 852.275 393.825 852.495 393.554 852.492C376.588 852.328 359.797 847.95 344.106 839.587C328.106 831.06 313.56 818.558 301.302 802.787C289.043 787.015 279.314 768.286 272.675 747.666C266.135 727.355 262.721 705.602 262.621 683.617C262.62 683.344 262.842 683.12 263.119 683.12L393.55 683.12C393.826 683.12 394.05 683.343 394.05 683.62L394.05 851.997Z" stroke="#222536"/>
<path d="M524.5 851.997C524.5 852.275 524.276 852.495 524.005 852.492C507.038 852.328 490.247 847.95 474.556 839.587C458.556 831.06 444.01 818.558 431.752 802.787C419.493 787.015 409.764 768.286 403.125 747.666C396.586 727.355 393.171 705.602 393.071 683.617C393.07 683.344 393.292 683.12 393.569 683.12L524 683.12C524.276 683.12 524.5 683.343 524.5 683.62L524.5 851.997Z" stroke="#222536"/>
<path d="M262.595 1023C262.595 1023.55 262.147 1024 261.595 1023.99C244.769 1023.83 228.122 1019.4 212.571 1010.97C196.711 1002.36 182.301 989.746 170.163 973.846C158.024 957.945 148.396 939.068 141.826 918.294C135.355 897.828 131.977 875.913 131.878 853.767C131.876 853.214 132.324 852.767 132.876 852.767L261.595 852.767C262.147 852.767 262.595 853.214 262.595 853.767L262.595 1023Z" fill="#528BE6"/>
</svg>
