<svg width="111" height="25" viewBox="0 0 111 25" fill="none" xmlns="http://www.w3.org/2000/svg">
<path d="M58.4426 10.6331H56.5774L61.0297 0H62.6542L67.1065 10.6331H65.136L64.038 7.92184H59.5406L58.4426 10.6331ZM63.3311 6.17994L61.7968 2.40836L60.2476 6.17994H63.3311Z" fill="#161617"/>
<path d="M77.6782 0.0302934V10.6331H76.2042L70.4132 3.28688V10.6331H68.6835V0.0302934H70.1575L75.9485 7.40684V0.0302934H77.6782Z" fill="#161617"/>
<path d="M69.4379 14.2305H71.2128L68.2045 24.8334H66.4747L63.9327 17.169L61.4358 24.8334H59.691L56.5474 14.2305H58.6231L60.7439 21.7888L63.0904 14.2305H64.9254L67.3321 21.804L69.4379 14.2305Z" fill="#161617"/>
<path d="M71.7057 19.532C71.7057 17.987 72.2171 16.6894 73.24 15.6392C74.2828 14.589 75.5964 14.0639 77.1808 14.0639C78.7652 14.0639 80.0738 14.5688 81.1066 15.5786C82.1495 16.5985 82.6709 17.9163 82.6709 19.532C82.6709 21.1173 82.1495 22.425 81.1066 23.455C80.0638 24.485 78.7551 25 77.1808 25C75.5964 25 74.2878 24.4951 73.255 23.4853C72.2221 22.4755 71.7057 21.1577 71.7057 19.532ZM73.6611 19.532C73.6611 20.6023 73.997 21.491 74.6689 22.1978C75.3407 22.9047 76.178 23.2581 77.1808 23.2581C78.2638 23.2581 79.1212 22.9047 79.7529 22.1978C80.3947 21.491 80.7155 20.6023 80.7155 19.532C80.7155 18.4515 80.3746 17.5578 79.6927 16.8509C79.0109 16.1542 78.1735 15.8058 77.1808 15.8058C76.168 15.8058 75.3257 16.1542 74.6538 16.8509C73.992 17.5477 73.6611 18.4414 73.6611 19.532Z" fill="#161617"/>
<path d="M86.662 20.8649V24.8334H84.8119V14.2305C85.3333 14.2305 85.8999 14.2255 86.5116 14.2154C87.1232 14.2053 87.6246 14.2002 88.0157 14.2002C90.5627 14.2002 91.8362 15.2908 91.8362 17.472C91.8362 18.2798 91.6307 18.9463 91.2195 19.4714C90.8084 19.9763 90.3371 20.3196 89.8056 20.5014L93.0997 24.8334H90.8585L87.9555 20.8649H86.662ZM87.9254 15.9421C87.8753 15.9421 87.7951 15.9472 87.6848 15.9573C87.5745 15.9573 87.4191 15.9623 87.2185 15.9724C87.018 15.9724 86.8324 15.9724 86.662 15.9724V19.123H87.8653C88.4569 19.123 88.9382 18.9766 89.3093 18.6837C89.6903 18.3909 89.8808 17.992 89.8808 17.4871C89.8808 16.4571 89.229 15.9421 87.9254 15.9421Z" fill="#161617"/>
<path d="M96.5623 24.8334H94.7122V14.2305H96.5623V19.2593L100.714 14.2305H102.94L98.6079 19.1684L103.211 24.8334H100.864L96.5623 19.3653V24.8334Z" fill="#161617"/>
<path d="M109.045 22.016C109.045 21.6929 108.924 21.4102 108.684 21.1678C108.453 20.9154 108.162 20.7134 107.811 20.5619C107.46 20.4004 107.074 20.2186 106.653 20.0167C106.242 19.8046 105.861 19.5875 105.51 19.3653C105.159 19.1331 104.863 18.815 104.623 18.4111C104.392 17.9971 104.277 17.5225 104.277 16.9873C104.277 16.1693 104.572 15.4776 105.164 14.9121C105.776 14.3467 106.573 14.0639 107.556 14.0639C108.889 14.0639 109.892 14.4426 110.564 15.1999L109.571 16.5935C109.04 16.0684 108.418 15.8058 107.706 15.8058C107.255 15.8058 106.894 15.9118 106.623 16.1239C106.362 16.336 106.232 16.6187 106.232 16.9721C106.232 17.1539 106.267 17.3256 106.337 17.4871C106.408 17.6386 106.483 17.7648 106.563 17.8658C106.653 17.9668 106.794 18.0778 106.984 18.199C107.185 18.3202 107.34 18.4111 107.45 18.4717C107.571 18.5222 107.766 18.608 108.037 18.7292C108.308 18.8503 108.498 18.9362 108.609 18.9867C109.05 19.1886 109.436 19.4007 109.767 19.6228C110.138 19.845 110.434 20.1631 110.654 20.5771C110.885 20.9911 111 21.4657 111 22.0009C111 22.8895 110.664 23.6115 109.992 24.1669C109.321 24.7223 108.483 25 107.48 25C106.779 25 106.082 24.8536 105.39 24.5607C104.728 24.2578 104.277 23.8488 104.036 23.3338L105.089 22.0615C105.37 22.4351 105.731 22.728 106.172 22.94C106.623 23.1521 107.069 23.2581 107.511 23.2581C107.972 23.2581 108.343 23.147 108.624 22.9249C108.904 22.7027 109.045 22.3998 109.045 22.016Z" fill="#161617"/>
<path d="M0.000165895 1.0002C0.00016592 0.447917 0.448322 -0.00305378 0.999521 0.0315489C3.27925 0.174663 5.52506 0.806629 7.63846 1.90319C10.0601 3.15968 12.2604 5.00116 14.1139 7.32264C15.9673 9.64413 17.4375 12.4001 18.4406 15.4331C19.3417 18.1578 19.85 21.0584 19.944 24.0001C19.9616 24.5522 19.5122 25 18.96 25L1.00017 25C0.447881 25 0.00016486 24.5523 0.000164885 24L0.000165895 1.0002Z" fill="#222536"/>
<path d="M39.6795 23.9998C39.6795 24.5521 39.2314 25.0031 38.6802 24.9685C36.4004 24.8253 34.1546 24.1934 32.0412 23.0968C29.6196 21.8403 27.4193 19.9988 25.5658 17.6774C23.7124 15.3559 22.2421 12.5999 21.2391 9.56693C20.338 6.84222 19.8297 3.94158 19.7357 0.999855C19.7181 0.447853 20.1674 1.91252e-06 20.7197 1.91889e-06L38.6795 2.12617e-06C39.2318 2.13255e-06 39.6795 0.447718 39.6795 1L39.6795 23.9998Z" fill="#A1CBF2"/>
<path d="M52.3582 23.9998C52.3582 24.5521 51.9101 25.0031 51.3589 24.9685C49.0792 24.8253 46.8333 24.1934 44.7199 23.0968C42.2983 21.8403 40.098 19.9988 38.2445 17.6774C36.3911 15.3559 34.9209 12.5999 33.9178 9.56693C33.0167 6.84222 32.5084 3.94158 32.4144 0.999855C32.3968 0.447853 32.8462 1.91252e-06 33.3984 1.91889e-06L51.3582 2.12617e-06C51.9105 2.13255e-06 52.3582 0.447718 52.3582 1L52.3582 23.9998Z" fill="#528BE6"/>
</svg>
