<svg width="320" height="52" viewBox="0 0 320 52" fill="none" xmlns="http://www.w3.org/2000/svg">
<g clip-path="url(#clip0_1742:763)">
<path d="M28 25.75C28.4176 25.75 28.7455 25.4135 28.7259 25.0126C28.5777 21.9773 27.7471 18.982 26.2668 16.1666C24.626 13.046 22.2191 10.2063 19.1797 7.81162L19.3344 7.61524L19.1797 7.81162C16.1402 5.41685 12.5289 3.51503 8.55104 2.21679C4.87953 1.01853 0.963207 0.356665 -3.00576 0.261867C-3.41361 0.252126 -3.74973 0.584186 -3.74973 1L-3.74973 25C-3.74973 25.4142 -3.41394 25.75 -2.99973 25.75L28 25.75Z" fill="white" stroke="#222536" stroke-width="0.5"/>
<path d="M60.4014 51.252C60.819 51.252 61.1468 50.9154 61.1273 50.5145C60.9791 47.4792 60.1485 44.484 58.6682 41.6685C57.0274 38.5479 54.6205 35.7082 51.581 33.3136L51.7357 33.1172L51.581 33.3136C48.5415 30.9188 44.9302 29.017 40.9524 27.7187C37.2809 26.5205 33.3646 25.8586 29.3956 25.7638C28.9878 25.7541 28.6516 26.0861 28.6516 26.502L28.6516 50.502C28.6516 50.9162 28.9874 51.252 29.4016 51.252H60.4014Z" fill="white" stroke="#222536" stroke-width="0.5"/>
<path d="M-3 25.752C-3.41763 25.752 -3.74548 26.0885 -3.72591 26.4894C-3.57772 29.5247 -2.7471 32.52 -1.26679 35.3354C0.373965 38.456 2.78091 41.2957 5.82034 43.6903L5.66562 43.8867L5.82034 43.6903C8.85983 46.0851 12.4711 47.9869 16.449 49.2852C20.1205 50.4834 24.0368 51.1453 28.0058 51.2401C28.4136 51.2498 28.7497 50.9178 28.7497 50.5019L28.7497 26.5019C28.7497 26.0877 28.4139 25.7519 27.9997 25.7519L-3 25.752Z" fill="#222536" stroke="#222536" stroke-width="0.5"/>
<path d="M102 51.252C102.418 51.252 102.745 50.9154 102.726 50.5145C102.578 47.4792 101.747 44.484 100.267 41.6685C98.626 38.5479 96.2191 35.7082 93.1797 33.3136L93.3344 33.1172L93.1797 33.3136C90.1402 30.9188 86.5289 29.017 82.551 27.7187C78.8795 26.5205 74.9632 25.8586 70.9942 25.7638C70.5864 25.7541 70.2503 26.0861 70.2503 26.502L70.2503 50.5019C70.2503 50.9162 70.5861 51.252 71.0003 51.252L102 51.252Z" fill="#528BE6" stroke="#222536" stroke-width="0.5"/>
<path d="M135 51.252C135.418 51.252 135.745 50.9154 135.726 50.5145C135.578 47.4792 134.747 44.484 133.267 41.6685C131.626 38.5479 129.219 35.7082 126.18 33.3136L126.334 33.1172L126.18 33.3136C123.14 30.9188 119.529 29.017 115.551 27.7187C111.88 26.5205 107.963 25.8586 103.994 25.7638C103.586 25.7541 103.25 26.0861 103.25 26.502L103.25 50.502C103.25 50.9162 103.586 51.252 104 51.252H135Z" fill="white" stroke="#222536" stroke-width="0.5"/>
<path d="M39 0.25C38.5824 0.25 38.2545 0.586544 38.2741 0.987425C38.4223 4.02274 39.2529 7.018 40.7332 9.83344C42.374 12.954 44.7809 15.7937 47.8203 18.1884L47.6656 18.3848L47.8203 18.1884C50.8598 20.5832 54.4711 22.485 58.449 23.7832C62.1205 24.9815 66.0368 25.6433 70.0058 25.7381C70.4136 25.7479 70.7497 25.4158 70.7497 25L70.7497 0.999999C70.7497 0.585786 70.4139 0.249997 69.9997 0.249997L39 0.25Z" fill="white" stroke="#222536" stroke-width="0.5"/>
<path d="M102 25.75C102.418 25.75 102.745 25.4135 102.726 25.0126C102.578 21.9773 101.747 18.982 100.267 16.1666C98.626 13.046 96.2191 10.2063 93.1797 7.81162L93.3344 7.61524L93.1797 7.81162C90.1402 5.41685 86.5289 3.51502 82.551 2.21679C78.8795 1.01853 74.9632 0.356662 70.9942 0.261865C70.5864 0.252123 70.2503 0.584183 70.2503 0.999997L70.2503 25C70.2503 25.4142 70.5861 25.75 71.0003 25.75L102 25.75Z" fill="white" stroke="#222536" stroke-width="0.5"/>
<path d="M104 -8.74228e-08C103.448 -3.91406e-08 102.997 0.44799 103.024 0.999617C103.174 4.07285 104.015 7.1035 105.512 9.94979C107.171 13.1043 109.601 15.9704 112.666 18.3848C115.73 20.7991 119.368 22.7142 123.371 24.0209C127.067 25.2269 131.007 25.8927 135 25.9881C135.552 26.0012 136 25.5523 136 25L136 0.999999C136 0.447715 135.552 -2.84579e-06 135 -2.79751e-06L104 -8.74228e-08Z" fill="#528BE6"/>
<path d="M168 25.75C168.418 25.75 168.745 25.4135 168.726 25.0126C168.578 21.9773 167.747 18.982 166.267 16.1666C164.626 13.046 162.219 10.2063 159.18 7.81162L159.334 7.61524L159.18 7.81162C156.14 5.41685 152.529 3.51502 148.551 2.21679C144.88 1.01853 140.963 0.356662 136.994 0.261865C136.586 0.252123 136.25 0.584183 136.25 0.999997L136.25 25C136.25 25.4142 136.586 25.75 137 25.75L168 25.75Z" fill="white" stroke="black" stroke-width="0.5"/>
<path d="M303 25.75C303.418 25.75 303.745 25.4135 303.726 25.0126C303.578 21.9773 302.747 18.982 301.267 16.1666C299.626 13.046 297.219 10.2063 294.18 7.81162L294.334 7.61524L294.18 7.81162C291.14 5.41685 287.529 3.51502 283.551 2.21679C279.88 1.01853 275.963 0.356662 271.994 0.261865C271.586 0.252123 271.25 0.584183 271.25 0.999997L271.25 25C271.25 25.4142 271.586 25.75 272 25.75L303 25.75Z" fill="white" stroke="black" stroke-width="0.5"/>
<path d="M170 25.75C169.582 25.75 169.255 25.4135 169.274 25.0126C169.422 21.9773 170.253 18.982 171.733 16.1666C173.374 13.046 175.781 10.2063 178.82 7.81162L178.666 7.61524L178.82 7.81162C181.86 5.41685 185.471 3.51503 189.449 2.21679C193.12 1.01853 197.037 0.356665 201.006 0.261867C201.414 0.252126 201.75 0.584186 201.75 1L201.75 25C201.75 25.4142 201.414 25.75 201 25.75L170 25.75Z" fill="white" stroke="#222536" stroke-width="0.5"/>
<path d="M201 25.7516C201.418 25.7516 201.745 26.0881 201.726 26.489C201.578 29.5243 200.747 32.5196 199.267 35.335C197.626 38.4556 195.219 41.2953 192.18 43.69L192.334 43.8864L192.18 43.69C189.14 46.0848 185.529 47.9866 181.551 49.2848C177.88 50.4831 173.963 51.1449 169.994 51.2397C169.586 51.2495 169.25 50.9174 169.25 50.5016L169.25 26.5016C169.25 26.0874 169.586 25.7516 170 25.7516L201 25.7516Z" fill="#528BE6" stroke="#222536" stroke-width="0.5"/>
<path d="M203 26.25C202.582 26.25 202.255 26.5865 202.274 26.9874C202.422 30.0227 203.253 33.018 204.733 35.8334C206.374 38.954 208.781 41.7937 211.82 44.1884L211.666 44.3848L211.82 44.1884C214.86 46.5832 218.471 48.485 222.449 49.7832C226.12 50.9815 230.037 51.6433 234.006 51.7381C234.414 51.7479 234.75 51.4158 234.75 51L234.75 27C234.75 26.5858 234.414 26.25 234 26.25L203 26.25Z" fill="white" stroke="#222536" stroke-width="0.5"/>
<path d="M239 25.512C238.582 25.512 238.255 25.8486 238.274 26.2494C238.422 29.2848 239.253 32.28 240.733 35.0955C242.374 38.2161 244.781 41.0557 247.82 43.4504L247.666 43.6468L247.82 43.4504C250.86 45.8452 254.471 47.747 258.449 49.0452C262.12 50.2435 266.037 50.9054 270.006 51.0002C270.414 51.0099 270.75 50.6778 270.75 50.262L270.75 26.262C270.75 25.8478 270.414 25.512 270 25.512L239 25.512Z" fill="white" stroke="#222536" stroke-width="0.5"/>
<path d="M233.521 0.25C233.939 0.25 234.267 0.586544 234.247 0.987425C234.099 4.02274 233.269 7.018 231.788 9.83344C230.148 12.954 227.741 15.7937 224.701 18.1884L224.856 18.3848L224.701 18.1884C221.662 20.5832 218.05 22.485 214.073 23.7832C210.401 24.9815 206.485 25.6433 202.516 25.7381C202.108 25.7479 201.772 25.4158 201.772 25L201.772 1C201.772 0.585789 202.108 0.25 202.522 0.25L233.521 0.25Z" fill="#222536" stroke="#222536" stroke-width="0.5"/>
<path d="M270 25.75C270.418 25.75 270.745 25.4135 270.726 25.0126C270.578 21.9773 269.747 18.982 268.267 16.1666C266.626 13.046 264.219 10.2063 261.18 7.81162L261.334 7.61524L261.18 7.81162C258.14 5.41685 254.529 3.51503 250.551 2.21679C246.88 1.01853 242.963 0.356665 238.994 0.261867C238.586 0.252126 238.25 0.584186 238.25 1L238.25 25C238.25 25.4142 238.586 25.75 239 25.75L270 25.75Z" fill="white" stroke="#222536" stroke-width="0.5"/>
<path d="M168 51.252C168.418 51.252 168.745 50.9154 168.726 50.5145C168.578 47.4792 167.747 44.484 166.267 41.6685C164.626 38.5479 162.219 35.7082 159.18 33.3136L159.334 33.1172L159.18 33.3136C156.14 30.9188 152.529 29.017 148.551 27.7187C144.88 26.5205 140.963 25.8586 136.994 25.7638C136.586 25.7541 136.25 26.0861 136.25 26.502L136.25 50.5019C136.25 50.9162 136.586 51.252 137 51.252L168 51.252Z" fill="white" stroke="black" stroke-width="0.5"/>
<path d="M302.488 51.012C302.906 51.012 303.234 50.6755 303.214 50.2746C303.066 47.2393 302.235 44.244 300.755 41.4286C299.114 38.308 296.707 35.4683 293.668 33.0736L293.823 32.8773L293.668 33.0736C290.628 30.6789 287.017 28.777 283.039 27.4788C279.368 26.2806 275.451 25.6187 271.483 25.5239C271.075 25.5141 270.739 25.8462 270.739 26.262L270.739 50.262C270.739 50.6762 271.074 51.012 271.489 51.012L302.488 51.012Z" fill="white" stroke="black" stroke-width="0.5"/>
<path d="M336 25.75C336.418 25.75 336.745 25.4135 336.726 25.0126C336.578 21.9773 335.747 18.982 334.267 16.1666C332.626 13.046 330.219 10.2063 327.18 7.81162L327.334 7.61524L327.18 7.81162C324.14 5.41685 320.529 3.51503 316.551 2.21679C312.88 1.01853 308.963 0.356665 304.994 0.261867C304.586 0.252126 304.25 0.584186 304.25 1L304.25 25C304.25 25.4142 304.586 25.75 305 25.75L336 25.75Z" fill="white" stroke="#222536" stroke-width="0.5"/>
<path d="M305 26.25C304.582 26.25 304.255 26.5865 304.274 26.9874C304.422 30.0227 305.253 33.018 306.733 35.8334C308.374 38.954 310.781 41.7937 313.82 44.1884L313.666 44.3848L313.82 44.1884C316.86 46.5832 320.471 48.485 324.449 49.7832C328.12 50.9815 332.037 51.6433 336.006 51.7381C336.414 51.7479 336.75 51.4158 336.75 51L336.75 27C336.75 26.5858 336.414 26.25 336 26.25L305 26.25Z" fill="#222536" stroke="#222536" stroke-width="0.5"/>
</g>
<defs>
<clipPath id="clip0_1742:763">
<rect width="320" height="52" fill="white"/>
</clipPath>
</defs>
</svg>
